<svg width="22" height="22" viewBox="0 0 22 22" fill="none" xmlns="http://www.w3.org/2000/svg">
<path d="M6 9.99994L10 0.999939C10.7956 0.999939 11.5587 1.31601 12.1213 1.87862C12.6839 2.44123 13 3.20429 13 3.99994V7.99994H18.66C18.9499 7.99666 19.2371 8.05644 19.5016 8.17516C19.7661 8.29387 20.0016 8.46867 20.1919 8.68745C20.3821 8.90623 20.5225 9.16376 20.6033 9.44219C20.6842 9.72062 20.7035 10.0133 20.66 10.2999L19.28 19.2999C19.2077 19.7768 18.9654 20.2115 18.5979 20.5239C18.2304 20.8363 17.7623 21.0054 17.28 20.9999H6M6 9.99994V20.9999M6 9.99994H3C2.46957 9.99994 1.96086 10.2107 1.58579 10.5857C1.21071 10.9608 1 11.4695 1 11.9999V18.9999C1 19.5304 1.21071 20.0391 1.58579 20.4142C1.96086 20.7892 2.46957 20.9999 3 20.9999H6" stroke="#333333" stroke-width="2" stroke-linecap="round" stroke-linejoin="round"/>
</svg>
