<svg width="23" height="22" viewBox="0 0 23 22" fill="none" xmlns="http://www.w3.org/2000/svg">
<path d="M16.3174 12.0001L12.3174 21.0001C11.5217 21.0001 10.7587 20.684 10.1961 20.1214C9.63345 19.5588 9.31738 18.7957 9.31738 18.0001L9.31738 14.0001L3.65738 14.0001C3.36748 14.0033 3.08032 13.9436 2.81581 13.8248C2.5513 13.7061 2.31577 13.5313 2.12553 13.3125C1.93528 13.0938 1.79488 12.8362 1.71404 12.5578C1.63321 12.2794 1.61388 11.9867 1.65738 11.7001L3.03738 2.70006C3.10971 2.22315 3.35195 1.78845 3.71948 1.47605C4.08701 1.16365 4.55506 0.994607 5.03738 1.00006L16.3174 1.00006M16.3174 12.0001L16.3174 1.00006M16.3174 12.0001L19.3174 12.0001C19.8478 12.0001 20.3565 11.7893 20.7316 11.4143C21.1067 11.0392 21.3174 10.5305 21.3174 10.0001L21.3174 3.00006C21.3174 2.46963 21.1067 1.96092 20.7316 1.58585C20.3565 1.21078 19.8478 1.00006 19.3174 1.00006L16.3174 1.00006" stroke="#333333" stroke-width="2" stroke-linecap="round" stroke-linejoin="round"/>
</svg>
